<?xml version="1.0" encoding="UTF-8"?>
<svg version="1.1" viewBox="0 0 82 32" xmlns="http://www.w3.org/2000/svg">
<title>ow-logo</title>
<desc>Created with Sketch.</desc>
<g fill="none" fill-rule="evenodd">
<g transform="translate(-1294 -8)" fill="#FFFFFE">
<g transform="translate(1294)">
<g transform="translate(0 8)">
<path d="m3.8844 30.417c-1.2404 0-2.2504-1.0902-2.2504-2.43 0-1.371 1.01-2.4865 2.2504-2.4865 1.2486 0 2.2638 1.1155 2.2638 2.4865 0 1.3398-1.0152 2.43-2.2638 2.43zm0-6.4682c2.1784 0 3.8844 1.7739 3.8844 4.0382 0 2.2409-1.7061 3.996-3.8844 3.996-2.1784 0-3.8844-1.755-3.8844-3.996 0-2.2643 1.7061-4.0382 3.8844-4.0382zm12.041 5.4549c-0.52139 1.5828-1.9023 2.5653-3.6037 2.5653-2.1325 0-3.8688-1.7926-3.8688-3.9964 0-2.2184 1.7362-4.0238 3.8688-4.0238 1.687 0 3.0677 0.98256 3.6037 2.5636l0.091329 0.27065h-1.7056l-0.057407-0.11121c-0.38798-0.74428-1.0922-1.1713-1.9321-1.1713-1.2391 0-2.2483 1.109-2.2483 2.4721 0 1.3479 1.0092 2.4444 2.2483 2.4444 0.85278 0 1.556-0.42637 1.9306-1.1687l0.057407-0.11347h1.7044l-0.08872 0.26887zm4.6323 2.5653c-2.2175 0-3.9552-1.7557-3.9552-3.9964 0-2.2184 1.7426-4.0238 3.8847-4.0238 0.9963 0 1.9433 0.39594 2.6642 1.1161 0.80255 0.80175 1.2401 1.9449 1.2325 3.2193l-0.0016308 0.20396h-6.1148c0.23729 1.3045 1.305 1.985 2.2902 1.985 0.92259 0 1.6093-0.42184 1.9848-1.22l0.055776-0.11833h1.6943l-0.089046 0.26887c-0.53672 1.6304-1.8664 2.5653-3.6458 2.5653zm-0.070454-6.525c-0.79424 0-1.7339 0.53531-2.1084 1.563h4.186c-0.33792-0.93205-1.1602-1.563-2.0776-1.563zm8.4712-1.4952c2.1696 0 3.8696 1.7675 3.8696 4.0238v3.8273h-1.5792v-0.77617c-0.6181 0.60847-1.451 0.95925-2.3193 0.95925-2.1625 0-3.8555-1.7615-3.8555-4.0104 0-2.2563 1.7064-4.0238 3.8844-4.0238zm0 1.5094c-1.2483 0-2.2633 1.1281-2.2633 2.5143 0 1.3947 0.99434 2.4872 2.2633 2.4872 1.2486 0 2.2641-1.1158 2.2641-2.4872 0-1.3626-1.0374-2.5143-2.2641-2.5143zm6.6876 1.6833v4.6583h-1.6051v-4.6159c0-1.9049 1.3401-3.2352 3.259-3.2352 1.9115 0 3.2459 1.3303 3.2459 3.2352v4.6159h-1.6061v-4.6583c0-0.99875-0.65887-1.6697-1.6398-1.6697-0.98896 0-1.6539 0.67096-1.6539 1.6697zm18.727 1.8631v-4.8555h1.6203v4.8555c0 1.7275-1.2638 2.9813-3.0055 2.9813-0.92291 0-1.6922-0.36292-2.1986-1.0295-0.49546 0.66659-1.2612 1.0295-2.1883 1.0295-1.7405 0-3.0031-1.2539-3.0031-2.9813v-4.8555h1.6209v4.8555c0 0.84659 0.55482 1.4162 1.3822 1.4162 0.82799 0 1.3841-0.56962 1.3841-1.4162v-3.1971h1.6204v3.1971c0 0.84659 0.55515 1.4162 1.3823 1.4162 0.82832 0 1.3853-0.56962 1.3853-1.4162zm3.2771 2.8125v-7.668h1.6203v7.668h-1.6203zm6.3909-4.8048c1.3934 0.2182 3.1282 0.49015 3.1282 2.4151 0 1.5387-1.2876 2.5725-3.2025 2.5725-1.899 0-3.2616-1.0437-3.4713-2.6591l-0.029682-0.23115h1.6286l0.03115 0.16818c0.13438 0.72826 0.8567 1.1987 1.8413 1.1987 1.0668 0 1.6255-0.49209 1.6255-0.97819 0-0.3197 0-0.68196-1.8104-0.92477-1.5348-0.21869-3.0313-0.57302-3.0313-2.2464 0-1.1367 0.96189-2.3609 3.0747-2.3609 1.7992 0 3.0202 0.9395 3.1866 2.4514l0.024789 0.22759h-1.618l-0.035227-0.16155c-0.1414-0.64069-0.70878-1.0085-1.5581-1.0085-0.81576 0-1.4551 0.35595-1.4551 0.80968 0 0.31565 0.16456 0.49063 1.671 0.72745zm11.627 1.289l-9.785e-4 0.20412h-6.1169c0.23794 1.3042 1.3055 1.985 2.2901 1.985 0.92373 0 1.611-0.422 1.9851-1.2203l0.055776-0.11849h1.6932l-0.08872 0.26871c-0.53607 1.6302-1.8649 2.5657-3.6453 2.5657-2.2178 0-3.9545-1.7553-3.9545-3.9961 0-2.2188 1.7423-4.0236 3.8834-4.0236 0.99761 0 1.9432 0.39578 2.664 1.1148 0.80321 0.80159 1.2411 1.9452 1.2349 3.2203zm-3.8989-2.8402c-0.79424 0-1.7331 0.53563-2.1063 1.5632h4.1847c-0.33678-0.93286-1.16-1.5632-2.0784-1.5632zm5.9855 6.5211c-0.62952 0-1.1397-0.50633-1.1397-1.1313 0-0.62207 0.51014-1.1282 1.1397-1.1282 0.62984 0 1.14 0.50617 1.14 1.1282 0 0.62498-0.51014 1.1313-1.14 1.1313zm0-2.0503c-0.50361 0-0.91313 0.41261-0.91313 0.91894 0 0.50941 0.40951 0.92186 0.91313 0.92186 0.50394 0 0.91329-0.41245 0.91329-0.92186 0-0.50633-0.40935-0.91894-0.91329-0.91894zm0.53281 1.4708h-0.2505l-0.2094-0.40128h-0.2823v0.39837h-0.21837v-1.1498h0.55596c0.24447 0 0.39859 0.14746 0.39859 0.37554 0 0.16478-0.095895 0.29768-0.24137 0.34964l0.2474 0.4275zm-0.40168-0.60087c0.090187 0 0.18037-0.046133 0.18037-0.17628 0-0.12998-0.069964-0.17628-0.18037-0.17628h-0.34053v0.35256h0.34053zm-13.793-18.161c-6.523e-4 -0.3273 0.23811-0.54081 0.4648-0.065396 0.21837 0.47056 0.47116 1.2165 0.82098 1.3116 0.29682 0.080936 0.48502-0.02072 0.73471-0.33119 0.27594-0.34365 0.53688-0.74105 0.76782-0.65768 0.21837 0.078022 0.13389 0.57675 0.066376 1.0737-0.05757 0.44531-0.078282 0.85695 0.14629 1.1247 0.27366 0.32747 1.079 0.27275 1.8111 0.25333 1.0602-0.031565 2.0989-0.080612 2.1872 0.26223 0.089372 0.35466-0.79293 0.7268-1.642 1.1584-0.5819 0.2938-1.0245 0.59455-1.2201 0.95909-0.29992 0.55959 0.1851 1.3186 0.55792 2.013 0.37168 0.68763 0.048763 0.92542-0.37999 0.65833-2.7545-1.7129-4.3422-4.5018-4.3151-7.7601zm13.44-3.9548c2.5236 0 4.4668 2.027 4.4668 4.395 0 2.2958-1.3018 5.5927-4.4829 7.4213-1.5258-0.86585-2.6728-2.0404-3.4607-3.5969-0.27986-0.53385-0.4374-1.1394-0.4374-1.7827 0.0050557-1.7055 1.3217-3.208 3.0538-3.208 1.5947 0 2.3979 0.98661 2.4576 2.1786 0 0.052284-0.060832 0.065396-0.097852 0.024604-0.19831-0.26029-0.4816-0.42783-0.83729-0.42783-0.60408 0-1.0912 0.48302-1.0912 1.0771 0 0.59148 0.48714 1.0745 1.0912 1.0745 1.1308 0 1.6465-1.053 1.6628-2.4331 0.012558-1.2908-0.76423-2.751-2.4744-3.0398-1.475-0.24475-2.9837 0.35935-3.7228 1.6545-0.28834 0.50212-0.58206 0.50455-0.58206 0.50455v0c0.1153-1.7333 1.8444-3.8419 4.4544-3.8419zm3.6183 0.3273c0.01533 0.061511-0.036858 0.086439-0.080076 0.058112-0.8461-0.69928-1.6552-1.091-2.8074-1.2521-0.8642-0.11962-1.6288-0.46473-2.4731-1.1511-1.1858-0.96394-2.6368-1.5043-4.3128-1.5043-1.4756 0-2.9517 0.58144-4.0305 1.4162-0.001957 0-0.19717 0.15005-0.11384 0.25657 0.08187 0.10797 0.28589-0.03464 0.28589-0.03464 0.9115-0.60783 2.1333-1.0863 3.326-1.0818 2.1541 0.0024281 3.0964 0.59083 3.8454 1.1906 1.4438 1.3924-0.42125 2.5071-1.3264 1.1993-0.32634-0.47072-0.94264-1.5284-3.1039-1.5284-0.81805 0-1.5953 0.1847-2.3101 0.57513 0 0-0.21919 0.11898-0.16537 0.23714 0.051536 0.11558 0.26127 0.027518 0.26127 0.027518 0.41865-0.13581 1.1307-0.3982 2.0363-0.35579 2.2997 0.10845 3.364 1.548 2.3684 3.9085-0.060505 0.14471-0.37902 0.9531-0.42778 1.74 0 0-0.43267 0.12658-0.9813-0.46149-0.92731-0.99632-2.0321-1.1232-2.7185-1.0803-0.39418 0.024281-0.75346 0.11865-1.0762 0.25025v-8.094e-4c-0.075673 0.029622-0.093938-0.027518-0.065887-0.076079 0.38179-0.95714 1.3081-1.7458 2.5645-1.7458 1.1273 0 1.7455 0.60524 1.9274 0.76873 0.152 0.1384 0.32047 0.33394 0.53607 0.287-0.2112-1.408-1.5012-2.7584-3.3254-2.7584-1.0279 0-1.9438 0.46182-2.553 1.1894-0.38864 0.54988-0.26306 0.94258-0.36874 1.616-0.25197 1.6279-2.0706 1.1786-1.5151-0.65202 0.16407-0.54049 0.36385-0.96394 0.36385-0.96394 1.4187-3.0555 4.5255-5.1747 8.1371-5.1747 3.5335 0 6.6406 2.0462 8.1032 5.1012zm-3.296-4.3016c0-0.0032374-0.0013047-0.0040468-0.0013047-0.0040468-0.27187-0.46732-0.67013-0.74623-1.4193-0.98256l-2.0017-0.59973c-1.1834-0.35806-1.7822-1.7118-1.426-3.0798 0.013047-0.06313 0.06817-0.056331 0.092634-0.0055036 0.003588 0.0016187 0.003588 0.0033993 0.0060343 0.0069605v0.0030756c0.20304 0.39675 0.53476 0.6907 1.1734 0.88301l2.2529 0.6831c1.1871 0.35887 1.7865 1.7215 1.4224 3.0938-0.012558 0.061025-0.065887 0.061025-0.090187 0.014568-0.0013047-0.0045324-0.0037511-0.0077698-0.0088068-0.01295z"/>
</g>
</g>
</g>
</g>
</svg>
